<svg xmlns="http://www.w3.org/2000/svg" viewBox="0 0 512 512">
  <defs>
    <radialGradient gradientUnits="userSpaceOnUse" cy="10%" id="gradient-0">
      <stop offset="0" style="stop-color: hsl(50, 100%, 50%);"/>
      <stop offset="1" style="stop-color: hsl(50, 100%, 60%);"/>
    </radialGradient>
  </defs>
  <!--! Font Awesome Pro 6.1.1 by @fontawesome - https://fontawesome.com License - https://fontawesome.com/license (Commercial License) Copyright 2022 Fonticons, Inc. -->
  <ellipse style="stroke: rgb(0, 0, 0); fill: rgba(0, 0, 0, 0.59);" cx="172.586" cy="207.006" rx="39.974" ry="39.974"/>
  <ellipse style="stroke: rgb(0, 0, 0); fill: rgba(0, 0, 0, 0.59);" cx="334.523" cy="207.481" rx="39.974" ry="39.974"/>
  <ellipse style="stroke: rgb(0, 0, 0); fill: rgba(0, 0, 0, 0.59);" cx="313.325" cy="356.208" rx="91.497" ry="59.893"/>
  <path style="fill: rgb(85, 167, 255);" d="M 159.427 274.06 L 102.158 363.286 L 124.366 417.011 L 160.476 423.338 L 196.937 414.736 L 218.502 375.214"></path>
  <path style="fill: url(#gradient-0);" d="M256 0C397.4 0 512 114.6 512 256C512 397.4 397.4 512 256 512C114.6 512 0 397.4 0 256C0 114.6 114.6 0 256 0zM256 352C290.9 352 323.2 367.8 348.3 394.9C354.3 401.4 364.4 401.7 370.9 395.7C377.4 389.7 377.7 379.6 371.7 373.1C341.6 340.5 301 320 256 320C247.2 320 240 327.2 240 336C240 344.8 247.2 352 256 352H256zM208 369C208 349 179.6 308.6 166.4 291.3C163.2 286.9 156.8 286.9 153.6 291.3C140.6 308.6 112 349 112 369C112 395 133.5 416 160 416C186.5 416 208 395 208 369H208zM303.6 208C303.6 225.7 317.1 240 335.6 240C353.3 240 367.6 225.7 367.6 208C367.6 190.3 353.3 176 335.6 176C317.1 176 303.6 190.3 303.6 208zM207.6 208C207.6 190.3 193.3 176 175.6 176C157.1 176 143.6 190.3 143.6 208C143.6 225.7 157.1 240 175.6 240C193.3 240 207.6 225.7 207.6 208z" />
</svg>